<?xml version="1.0" encoding="UTF-8"?>
<svg xmlns="http://www.w3.org/2000/svg" width="51" height="51" viewBox="0 0 51 51" fill="none">
  <g clip-path="url(#clip0_5949_120771)">
    <path fill-rule="evenodd" clip-rule="evenodd" d="M38.3125 25.0118C38.3155 27.3262 38.1515 29.6377 37.8217 31.9285C36.0019 33.3717 34.0768 34.677 32.0625 35.8335C30.0563 36.9971 27.9674 38.0118 25.8125 38.8693C23.6558 38.016 21.5665 37.0012 19.5625 35.8335C17.5482 34.677 15.6231 33.3717 13.8033 31.9285C13.1489 27.3383 13.1489 22.6786 13.8033 18.0885C15.6234 16.6475 17.5484 15.3444 19.5625 14.1901C21.5687 13.0265 23.6576 12.0118 25.8125 11.1543C27.9692 12.0076 30.0585 13.0224 32.0625 14.1901C34.0768 15.3466 36.0019 16.6519 37.8217 18.0951C38.1515 20.3859 38.3155 22.6974 38.3125 25.0118Z" fill="#0077CC"></path>
    <path d="M45.4426 25.0117C48.1251 21.0034 49.0826 17.1217 48.1301 14.0326C47.9945 13.5926 47.528 13.3458 47.088 13.4813C46.648 13.6168 46.4012 14.0834 46.5367 14.5234C47.2992 16.9951 46.5276 20.1726 44.3934 23.5534C42.6859 21.3777 40.7361 19.4036 38.5817 17.6692C38.1647 14.9184 37.4312 12.225 36.3959 9.64255C40.9026 9.46422 44.2217 10.6426 45.8067 13.0242C46.0622 13.4071 46.5797 13.5105 46.9626 13.2551C47.3455 12.9996 47.4488 12.4821 47.1934 12.0992C45.1934 9.09922 41.1101 7.66088 35.6676 8.01588C33.2484 3.06922 29.7567 0.0117188 25.8126 0.0117188C21.8684 0.0117188 18.3767 3.07005 15.9559 8.01172C10.1051 7.63755 5.76673 9.37755 3.99507 12.8451C3.95661 12.928 3.93184 13.0167 3.92173 13.1076C3.83728 13.1867 3.77078 13.283 3.72673 13.3901C2.41507 16.5834 3.29173 20.6951 6.1834 25.0117C3.10423 29.6059 2.31257 33.9134 3.97923 37.1867C4.1214 37.4665 4.40872 37.6427 4.72257 37.6426H4.75423C4.62213 37.9275 4.66315 38.2628 4.86007 38.5075C6.76007 40.8342 10.1009 42.0692 14.4001 42.0692C14.9042 42.0692 15.4267 42.0467 15.9567 42.0117C18.3767 46.9542 21.8684 50.0117 25.8126 50.0117C29.7567 50.0117 33.2484 46.9542 35.6692 42.0117C36.2051 42.0467 36.7326 42.0701 37.2417 42.0701C41.7467 42.0701 45.1759 40.7176 47.0242 38.1717C47.2771 37.819 47.2145 37.3309 46.8809 37.0534C47.2988 37.2104 47.7649 36.9994 47.9226 36.5817C49.1992 33.3917 48.3126 29.3009 45.4426 25.0117ZM43.4017 25.0117C42.0694 26.7856 40.5618 28.4208 38.9017 29.8925C39.0654 28.2708 39.1469 26.6417 39.1459 25.0117C39.145 23.3816 39.0615 21.7526 38.8959 20.1309C40.558 21.6023 42.0676 23.2375 43.4017 25.0117ZM34.6384 40.245C32.4199 39.9794 30.2343 39.4888 28.1151 38.7809C29.6067 38.1152 31.0633 37.3737 32.4792 36.5592C33.9001 35.7392 35.2765 34.8443 36.6026 33.8784C36.1656 36.0618 35.5075 38.195 34.6384 40.245ZM15.0234 33.8784C16.3491 34.8444 17.7252 35.7392 19.1459 36.5592C20.5598 37.3727 22.0138 38.1142 23.5026 38.7809C21.3856 39.4885 19.2021 39.9791 16.9859 40.245C16.1173 38.1949 15.4598 36.0617 15.0234 33.8784ZM16.9867 9.77839C19.2052 10.0441 21.3909 10.5346 23.5101 11.2426C22.0184 11.9083 20.5618 12.6498 19.1459 13.4642C17.725 14.2843 16.3486 15.1791 15.0226 16.1451C15.4595 13.9617 16.1176 11.8284 16.9867 9.77839ZM19.9792 35.1151C18.1 34.0336 16.3034 32.8144 14.6042 31.4676C13.9942 27.1853 13.9942 22.8382 14.6042 18.5559C16.3035 17.2091 18.1 15.99 19.9792 14.9084C21.8543 13.824 23.8055 12.8771 25.8176 12.0751C27.828 12.8772 29.7775 13.8241 31.6509 14.9084C33.5301 15.9899 35.3267 17.2091 37.0259 18.5559C37.3307 20.6943 37.4822 22.8517 37.4792 25.0117C37.4808 27.1718 37.3279 29.3293 37.0217 31.4676C35.3222 32.8143 33.5254 34.0335 31.6459 35.1151C29.7724 36.1986 27.8229 37.145 25.8126 37.9467C23.8023 37.145 21.8527 36.1986 19.9792 35.1151ZM12.7292 29.8925C11.0667 28.4215 9.55709 26.7863 8.2234 25.0117C9.5557 23.2378 11.0633 21.6026 12.7234 20.1309C12.3956 23.3765 12.3956 26.6469 12.7234 29.8925H12.7292ZM28.1259 11.2426C30.2429 10.5349 32.4263 10.0444 34.6426 9.77839C35.5114 11.8285 36.1692 13.9617 36.6059 16.1451C35.2788 15.1789 33.9013 14.2841 32.4792 13.4642C31.0651 12.6507 29.6108 11.9092 28.1217 11.2426H28.1259ZM25.8126 1.67839C28.9426 1.67839 31.7867 4.16089 33.8842 8.18755C31.1238 8.57942 28.4171 9.2851 25.8167 10.2909C23.214 9.28436 20.5048 8.57867 17.7417 8.18755C19.8392 4.16089 22.6826 1.67839 25.8126 1.67839ZM5.2684 14.0192C5.29047 13.9538 5.30364 13.8857 5.30757 13.8167C5.37676 13.7549 5.43507 13.682 5.48007 13.6009C6.87507 10.8717 10.3967 9.45838 15.2301 9.64338C14.1951 12.2259 13.4619 14.9193 13.0451 17.6701C10.8889 19.4066 8.93775 21.3833 7.22923 23.5617C4.9234 19.9284 4.22423 16.5651 5.2684 14.0192ZM6.1509 37.4509C5.98178 37.2486 5.72549 37.1403 5.46257 37.16C5.5763 36.9306 5.5763 36.6612 5.46257 36.4317C4.1659 33.8767 4.81257 30.2859 7.22923 26.4626C8.93848 28.6406 10.8902 30.617 13.0467 32.3534C13.4632 35.1008 14.195 37.7911 15.2276 40.3709C11.0434 40.5317 7.84007 39.5192 6.1509 37.4509ZM25.8126 48.3451C22.6826 48.3451 19.8384 45.8625 17.7409 41.8359C20.5028 41.4443 23.2109 40.7386 25.8126 39.7326C28.4153 40.7391 31.1245 41.4448 33.8876 41.8359C31.7859 45.8625 28.9426 48.3451 25.8126 48.3451ZM45.6751 37.1892C44.0442 39.4392 40.7717 40.5401 36.4017 40.3692C37.4341 37.7899 38.1656 35.1002 38.5817 32.3534C40.7375 30.617 42.6882 28.6403 44.3959 26.4617C46.6826 30.0767 47.3892 33.4192 46.3717 35.9617C46.2367 36.3071 46.3493 36.7002 46.6467 36.9217C46.2998 36.7782 45.8997 36.8883 45.6751 37.1892Z" fill="#82A5FF"></path>
    <path d="M22.4138 19.6909C22.2843 19.3804 21.981 19.1782 21.6446 19.1782C21.3082 19.1782 21.0049 19.3804 20.8754 19.6909L16.7088 29.6909C16.5941 29.9657 16.6348 30.2808 16.8155 30.5174C16.9962 30.7541 17.2894 30.8764 17.5847 30.8383C17.88 30.8001 18.1325 30.6074 18.2471 30.3326L19.4221 27.5117H23.8671L25.0421 30.3326C25.2193 30.7574 25.7073 30.9581 26.1321 30.7809C26.5569 30.6037 26.7576 30.1157 26.5804 29.6909L22.4138 19.6909ZM20.1171 25.8451L21.6446 22.1784L23.1721 25.8451H20.1171Z" fill="white"></path>
    <path fill-rule="evenodd" clip-rule="evenodd" d="M33.3118 29.1785H31.6452V20.8451H33.3118C33.7721 20.8451 34.1452 20.472 34.1452 20.0118C34.1452 19.5516 33.7721 19.1785 33.3118 19.1785H28.3118C27.8516 19.1785 27.4785 19.5516 27.4785 20.0118C27.4785 20.472 27.8516 20.8451 28.3118 20.8451H29.9785V29.1785H28.3118C27.8516 29.1785 27.4785 29.5516 27.4785 30.0118C27.4785 30.472 27.8516 30.8451 28.3118 30.8451H33.3118C33.7721 30.8451 34.1452 30.472 34.1452 30.0118C34.1452 29.5516 33.7721 29.1785 33.3118 29.1785Z" fill="white"></path>
    <path d="M4.97852 15.845C6.35923 15.845 7.47852 14.7257 7.47852 13.345C7.47852 11.9643 6.35923 10.845 4.97852 10.845C3.5978 10.845 2.47852 11.9643 2.47852 13.345C2.47852 14.7257 3.5978 15.845 4.97852 15.845Z" fill="#82A5FF"></path>
    <path d="M46.6445 39.1782C48.0252 39.1782 49.1445 38.0589 49.1445 36.6782C49.1445 35.2975 48.0252 34.1782 46.6445 34.1782C45.2638 34.1782 44.1445 35.2975 44.1445 36.6782C44.1445 38.0589 45.2638 39.1782 46.6445 39.1782Z" fill="#82A5FF"></path>
    <path d="M4.97852 39.1782C6.35923 39.1782 7.47852 38.0589 7.47852 36.6782C7.47852 35.2975 6.35923 34.1782 4.97852 34.1782C3.5978 34.1782 2.47852 35.2975 2.47852 36.6782C2.47852 38.0589 3.5978 39.1782 4.97852 39.1782Z" fill="#82A5FF"></path>
    <path d="M46.6445 15.845C48.0252 15.845 49.1445 14.7257 49.1445 13.345C49.1445 11.9643 48.0252 10.845 46.6445 10.845C45.2638 10.845 44.1445 11.9643 44.1445 13.345C44.1445 14.7257 45.2638 15.845 46.6445 15.845Z" fill="#82A5FF"></path>
  </g>
  <defs>
    <clipPath id="clip0_5949_120771">
      <rect width="50" height="50" fill="white" transform="translate(0.8125 0.0117188)"></rect>
    </clipPath>
  </defs>
</svg>
